# Blender v3.1.2 OBJ File: ''
# www.blender.org
mtllib cube.mtl
o Cube
v 6.347748 4.379049 0.283439
v 4.752817 3.570690 -0.612524
v 5.163207 5.144355 1.701597
v 3.568276 4.335996 0.805633
v 6.117400 6.040633 -0.805633
v 4.522470 5.232274 -1.701597
v 4.932859 6.805939 0.612524
v 3.337929 5.997580 -0.283440
vt 0.625000 0.500000
vt 0.875000 0.500000
vt 0.875000 0.750000
vt 0.625000 0.750000
vt 0.375000 0.750000
vt 0.625000 1.000000
vt 0.375000 1.000000
vt 0.375000 0.000000
vt 0.625000 0.000000
vt 0.625000 0.250000
vt 0.375000 0.250000
vt 0.125000 0.500000
vt 0.375000 0.500000
vt 0.125000 0.750000
vn 0.7975 0.4042 0.4480
vn -0.5923 0.3827 0.7091
vn -0.1152 0.8308 -0.5445
vn -0.7975 -0.4042 -0.4480
vn 0.1152 -0.8308 0.5445
vn 0.5923 -0.3827 -0.7091
usemtl Material
s off
f 1/1/1 5/2/1 7/3/1 3/4/1
f 4/5/2 3/4/2 7/6/2 8/7/2
f 8/8/3 7/9/3 5/10/3 6/11/3
f 6/12/4 2/13/4 4/5/4 8/14/4
f 2/13/5 1/1/5 3/4/5 4/5/5
f 6/11/6 5/10/6 1/1/6 2/13/6
